# xmcd CD database file
#
# Track frame offsets:
#	150
#	15832
#	34020
#	55617
#	69832
#	93040
#	109460
#	128495
#	143817
#	166932
#	188107
#	211830
#	236927
#	257632
#	273092
#	289125
#	304822
#	319180
#
# Disc length: 4516 seconds
#
# Revision: 0
# Processed by: cddbd v1.5.1PL0 Copyright (c) Steve Scherf et al.
# Submitted via: CDex 1.51
#
DISCID=ef11a212
DTITLE=Various Artist - Wild Pitch Collections
DYEAR=1996
DGENRE=Hip-Hop
TTITLE0=Jazz music - Gang Starr
TTITLE1=Conscience be free - Gang Starr
TTITLE2=Positivity (remix) - Gang Starr
TTITLE3=DJ Premier's in deep concentration - Gang Starr
TTITLE4=Words I manifest (remix) - Gang Starr
TTITLE5=Knowledge - Gang Starr
TTITLE6=Movin' on - Gang Starr
TTITLE7=Premier and The Guru - Gang Starr
TTITLE8=Baby, you nasty - Load Finesse and DJ Mike Smooth
TTITLE9=Funky techinician - Load Finesse and DJ Mike Smooth
TTITLE10=Strictly for the ladies - Load Finesse and DJ Mike Smooth
TTITLE11=Track the movement - Load Finesse and DJ Mike Smooth
TTITLE12=Sad mutha - Load Finesse and DJ Mike Smooth
TTITLE13=Back to back rhyming - Load Finesse and DJ Mike Smooth
TTITLE14=One to grow on - UMC
TTITLE15=Blue cheese - UMC
TTITLE16=No tricks - Latee
TTITLE17=Wake up - Latee
EXTD=YEAR: 1996
EXTT0=
EXTT1=
EXTT2=
EXTT3=
EXTT4=
EXTT5=
EXTT6=
EXTT7=
EXTT8=
EXTT9=
EXTT10=
EXTT11=
EXTT12=
EXTT13=
EXTT14=
EXTT15=
EXTT16=
EXTT17=
PLAYORDER=
